<svg xmlns="http://www.w3.org/2000/svg" id="svg64945" width="21.173" height="20.971" version="1.1" viewBox="0 0 5.602 5.549" xml:space="preserve"><g id="layer1" transform="translate(-4772.085 184.731)"><g style="stroke-width:.64998" id="g66-0" transform="matrix(1.53853 0 0 1.5385 3373.3 -429.14)"><path style="opacity:.2;fill:#3e3c67;fill-opacity:1;stroke:none;stroke-width:.171974;stroke-linecap:butt;stroke-linejoin:round;stroke-dasharray:none;stroke-opacity:1;paint-order:fill markers stroke" id="rect65-4" d="m910.993 158.949-1.455 1.455v1.582c0 .22.177.397.397.397h.793a.132.132 0 0 1-.132-.132v-1.058c0-.074.06-.133.132-.133h.53c.073 0 .132.06.132.133v1.058a.132.132 0 0 1-.132.132h.793c.22 0 .397-.177.397-.397v-1.582z"/><path style="fill:none;fill-opacity:1;stroke:#3e3c67;stroke-width:.171974;stroke-linecap:butt;stroke-linejoin:round;stroke-dasharray:none;stroke-opacity:1;paint-order:fill markers stroke" id="rect65-4-6" d="m910.993 158.949-1.455 1.455v1.582c0 .22.177.397.397.397h.793a.132.132 0 0 1-.132-.132v-1.058c0-.074.059-.133.132-.133h.53c.073 0 .132.06.132.133v1.058a.132.132 0 0 1-.133.132h.794c.22 0 .397-.177.397-.397v-1.582z"/><rect id="rect65-7-2" width=".794" height="1.323" x="910.596" y="161.061" rx=".132" ry=".132" style="opacity:1;fill:none;fill-opacity:1;stroke:#3e3c67;stroke-width:.171974;stroke-linecap:butt;stroke-linejoin:round;stroke-dasharray:none;stroke-opacity:1;paint-order:fill markers stroke"/><path id="path66-5-9" d="m912.727 160.683-1.734-1.734-1.735 1.734" style="opacity:1;fill:none;fill-opacity:1;stroke:#3e3c67;stroke-width:.171974;stroke-linecap:round;stroke-linejoin:round;stroke-dasharray:none;stroke-opacity:1;paint-order:fill markers stroke"/></g></g><style id="style1070" type="text/css"/></svg>