<svg xmlns="http://www.w3.org/2000/svg" id="svg64945" width="28.874" height="23.089" version="1.1" viewBox="0 0 7.64 6.109" xml:space="preserve"><g id="layer1" transform="translate(-2171.99 143.566)"><g id="g725-7-9" transform="translate(1314.62 -204.869)"><path style="opacity:1;fill:none;fill-opacity:1;stroke:#3e3c67;stroke-width:.264583;stroke-linecap:round;stroke-dasharray:none;stroke-opacity:1;paint-order:markers fill stroke" id="rect653-7-6" d="m864.877 62.797-3.712 2.08-3.663-2.053v3.35c0 .604.486 1.09 1.09 1.09h5.195c.604 0 1.09-.486 1.09-1.09z"/><path style="opacity:1;fill:none;fill-opacity:1;stroke:#3e3c67;stroke-width:.264583;stroke-linecap:round;stroke-dasharray:none;stroke-opacity:1;paint-order:markers fill stroke" id="path655-6-2" d="m860.239 64.357-2.737 1.533v.3c0 .604.486 1.09 1.09 1.09h5.195c.604 0 1.09-.486 1.09-1.09v-.272l-2.786-1.56-.926.518z"/><path style="opacity:.2;fill:#3e3c67;fill-opacity:1;stroke:none;stroke-width:.264583;stroke-linecap:round;stroke-dasharray:none;stroke-opacity:1;paint-order:markers fill stroke" id="path656-8-1" d="M858.592 61.435c-.604 0-1.09.486-1.09 1.09v.299l3.663 2.052 3.712-2.08v-.272c0-.603-.486-1.089-1.09-1.089z"/><path style="fill:none;fill-opacity:1;stroke:#3e3c67;stroke-width:.264583;stroke-linecap:round;stroke-dasharray:none;stroke-opacity:1;paint-order:markers fill stroke" id="path656-8-1-7" d="M858.592 61.435c-.604 0-1.09.486-1.09 1.09v.299l3.663 2.052 3.712-2.08v-.272c0-.603-.486-1.089-1.09-1.089z"/></g></g><style id="style1070" type="text/css"/></svg>